<svg xmlns="http://www.w3.org/2000/svg" xmlns:xlink="http://www.w3.org/1999/xlink" version="1.1" width="256" height="256" viewBox="0 0 256 256" xml:space="preserve">

<defs>
</defs>
<g style="stroke: none; stroke-width: 0; stroke-dasharray: none; stroke-linecap: butt; stroke-linejoin: miter; stroke-miterlimit: 10; fill: none; fill-rule: nonzero; opacity: 1;" transform="translate(1.4065934065934016 1.4065934065934016) scale(2.81 2.81)" >
	<path d="M 56.218 18.134 c -0.572 0 -1.034 -0.463 -1.034 -1.034 v -6.738 c 0 -0.571 0.463 -1.034 1.034 -1.034 c 0.572 0 1.034 0.463 1.034 1.034 V 17.1 C 57.252 17.671 56.789 18.134 56.218 18.134 z" style="stroke: none; stroke-width: 1; stroke-dasharray: none; stroke-linecap: butt; stroke-linejoin: miter; stroke-miterlimit: 10; fill: rgb(255,255,255); fill-rule: nonzero; opacity: 1;" transform=" matrix(1 0 0 1 0 0) " stroke-linecap="round" />
	<path d="M 88.966 44.144 h -6.738 c -0.572 0 -1.034 -0.463 -1.034 -1.034 s 0.463 -1.034 1.034 -1.034 h 6.738 c 0.572 0 1.034 0.463 1.034 1.034 S 89.537 44.144 88.966 44.144 z" style="stroke: none; stroke-width: 1; stroke-dasharray: none; stroke-linecap: butt; stroke-linejoin: miter; stroke-miterlimit: 10; fill: rgb(255,255,255); fill-rule: nonzero; opacity: 1;" transform=" matrix(1 0 0 1 0 0) " stroke-linecap="round" />
	<path d="M 37.826 25.752 c -0.265 0 -0.529 -0.101 -0.731 -0.303 l -4.764 -4.764 c -0.404 -0.404 -0.404 -1.059 0 -1.463 s 1.059 -0.404 1.463 0 l 4.764 4.764 c 0.404 0.404 0.404 1.059 0 1.463 C 38.355 25.651 38.09 25.752 37.826 25.752 z" style="stroke: none; stroke-width: 1; stroke-dasharray: none; stroke-linecap: butt; stroke-linejoin: miter; stroke-miterlimit: 10; fill: rgb(255,255,255); fill-rule: nonzero; opacity: 1;" transform=" matrix(1 0 0 1 0 0) " stroke-linecap="round" />
	<path d="M 74.609 25.752 c -0.265 0 -0.529 -0.101 -0.731 -0.303 c -0.404 -0.404 -0.404 -1.059 0 -1.463 l 4.765 -4.764 c 0.404 -0.404 1.059 -0.404 1.463 0 c 0.404 0.404 0.404 1.059 0 1.463 l -4.765 4.764 C 75.138 25.651 74.874 25.752 74.609 25.752 z" style="stroke: none; stroke-width: 1; stroke-dasharray: none; stroke-linecap: butt; stroke-linejoin: miter; stroke-miterlimit: 10; fill: rgb(255,255,255); fill-rule: nonzero; opacity: 1;" transform=" matrix(1 0 0 1 0 0) " stroke-linecap="round" />
	<path d="M 49.632 43.275 c 2.645 -1.416 5.581 -2.156 8.609 -2.156 c 7.013 0 13.154 3.894 16.229 9.804 c 1.028 -2.399 1.601 -5.039 1.601 -7.814 c 0 -10.965 -8.889 -19.854 -19.854 -19.854 c -7.535 0 -14.089 4.198 -17.452 10.382 C 43.235 35.646 47.07 38.984 49.632 43.275 z" style="stroke: none; stroke-width: 1; stroke-dasharray: none; stroke-linecap: butt; stroke-linejoin: miter; stroke-miterlimit: 10; fill: rgb(255,255,255); fill-rule: nonzero; opacity: 1;" transform=" matrix(1 0 0 1 0 0) " stroke-linecap="round" />
	<path d="M 7.635 59.035 C 3.069 60.536 0 64.771 0 69.574 c 0 6.12 4.979 11.098 11.099 11.098 h 59.703 c 6.12 0 11.099 -4.978 11.099 -11.098 c 0 -4.98 -3.358 -9.377 -8.167 -10.692 c -0.785 -0.214 -1.371 -0.868 -1.498 -1.671 c -1.099 -6.927 -6.985 -11.954 -13.996 -11.954 c -2.947 0 -5.781 0.907 -8.198 2.623 c -0.497 0.354 -1.127 0.47 -1.72 0.314 c -0.592 -0.156 -1.085 -0.564 -1.347 -1.117 c -3.283 -6.942 -10.361 -11.428 -18.033 -11.428 c -10.994 0 -19.939 8.945 -19.939 19.939 c 0 0.453 0.021 0.9 0.051 1.346 C 9.116 57.876 8.532 58.74 7.635 59.035 z" style="stroke: none; stroke-width: 1; stroke-dasharray: none; stroke-linecap: butt; stroke-linejoin: miter; stroke-miterlimit: 10; fill: rgb(255,255,255); fill-rule: nonzero; opacity: 1;" transform=" matrix(1 0 0 1 0 0) " stroke-linecap="round" />
</g>
</svg>