<svg xmlns="http://www.w3.org/2000/svg" xmlns:xlink="http://www.w3.org/1999/xlink" version="1.1" width="256" height="256" viewBox="0 0 256 256" xml:space="preserve">

<defs>
</defs>
<g style="stroke: none; stroke-width: 0; stroke-dasharray: none; stroke-linecap: butt; stroke-linejoin: miter; stroke-miterlimit: 10; fill: none; fill-rule: nonzero; opacity: 1;" transform="translate(1.4065934065934016 1.4065934065934016) scale(2.81 2.81)" >
	<path d="M 32.989 16.673 c 1.29 1.04 3.178 0.837 4.219 -0.451 c 2.664 -3.302 5.333 -6.39 7.725 -9.148 c 10.733 12.376 26.601 30.881 26.601 50.325 c 0 0.677 -0.025 1.351 -0.074 2.004 c -0.125 1.652 1.113 3.093 2.765 3.218 c 0.077 0.006 0.153 0.009 0.229 0.009 c 1.555 0 2.869 -1.199 2.988 -2.773 c 0.061 -0.804 0.092 -1.631 0.092 -2.457 c 0 -21.901 -17.105 -41.62 -28.425 -54.668 l -1.199 -1.383 C 47.171 0.492 46.086 0.001 44.934 0 c 0 0 -0.001 0 -0.001 0 c -1.151 0 -2.236 0.491 -2.973 1.343 l -1.21 1.396 c -2.506 2.889 -5.347 6.164 -8.211 9.714 C 31.498 13.744 31.699 15.632 32.989 16.673 z" style="stroke: none; stroke-width: 1; stroke-dasharray: none; stroke-linecap: butt; stroke-linejoin: miter; stroke-miterlimit: 10; fill: rgb(255,255,255); fill-rule: nonzero; opacity: 1;" transform=" matrix(1 0 0 1 0 0) " stroke-linecap="round" />
	<path d="M 84.457 85.011 l -74.423 -84 c -1.1 -1.241 -2.995 -1.354 -4.235 -0.256 C 4.559 1.854 4.444 3.75 5.543 4.989 l 17.806 20.097 C 15.944 36.689 12.332 47.28 12.332 57.398 C 12.332 75.375 26.957 90 44.932 90 c 9.918 0 19.106 -4.437 25.272 -12.029 l 9.762 11.019 C 80.56 89.658 81.384 90 82.213 90 c 0.707 0 1.418 -0.249 1.988 -0.755 C 85.441 88.146 85.556 86.251 84.457 85.011 z" style="stroke: none; stroke-width: 1; stroke-dasharray: none; stroke-linecap: butt; stroke-linejoin: miter; stroke-miterlimit: 10; fill: rgb(255,255,255); fill-rule: nonzero; opacity: 1;" transform=" matrix(1 0 0 1 0 0) " stroke-linecap="round" />
</g>
</svg>