<svg xmlns="http://www.w3.org/2000/svg" xmlns:xlink="http://www.w3.org/1999/xlink" version="1.1" width="256" height="256" viewBox="0 0 256 256" xml:space="preserve">

<defs>
</defs>
<g style="stroke: none; stroke-width: 0; stroke-dasharray: none; stroke-linecap: butt; stroke-linejoin: miter; stroke-miterlimit: 10; fill: none; fill-rule: nonzero; opacity: 1;" transform="translate(1.4065934065934016 1.4065934065934016) scale(2.81 2.81)" >
	<path d="M 76.667 41.394 H 3 c -1.657 0 -3 -1.343 -3 -3 s 1.343 -3 3 -3 h 73.667 c 4.043 0 7.333 -3.29 7.333 -7.333 c 0 -4.043 -3.29 -7.333 -7.333 -7.333 c -1.959 0 -3.801 0.763 -5.186 2.147 c -1.172 1.172 -3.07 1.172 -4.242 0 c -1.172 -1.171 -1.172 -3.071 0 -4.242 c 2.518 -2.519 5.866 -3.905 9.428 -3.905 C 84.019 14.727 90 20.708 90 28.06 S 84.019 41.394 76.667 41.394 z" style="stroke: none; stroke-width: 1; stroke-dasharray: none; stroke-linecap: butt; stroke-linejoin: miter; stroke-miterlimit: 10; fill: rgb(255,255,255); fill-rule: nonzero; opacity: 1;" transform=" matrix(1 0 0 1 0 0) " stroke-linecap="round" />
	<path d="M 76.667 75.273 c -3.561 0 -6.909 -1.387 -9.428 -3.906 c -1.172 -1.171 -1.172 -3.071 0 -4.242 c 1.172 -1.172 3.07 -1.172 4.242 0 c 1.386 1.386 3.228 2.148 5.186 2.148 c 4.043 0 7.333 -3.29 7.333 -7.334 c 0 -4.043 -3.29 -7.333 -7.333 -7.333 H 3 c -1.657 0 -3 -1.343 -3 -3 s 1.343 -3 3 -3 h 73.667 C 84.019 48.606 90 54.588 90 61.939 C 90 69.292 84.019 75.273 76.667 75.273 z" style="stroke: none; stroke-width: 1; stroke-dasharray: none; stroke-linecap: butt; stroke-linejoin: miter; stroke-miterlimit: 10; fill: rgb(255,255,255); fill-rule: nonzero; opacity: 1;" transform=" matrix(1 0 0 1 0 0) " stroke-linecap="round" />
	<path d="M 50.315 28.604 H 3 c -1.657 0 -3 -1.343 -3 -3 s 1.343 -3 3 -3 h 47.315 c 4.043 0 7.333 -3.29 7.333 -7.333 c 0 -4.043 -3.29 -7.333 -7.333 -7.333 c -1.958 0 -3.8 0.763 -5.186 2.148 c -1.172 1.171 -3.071 1.171 -4.243 0 c -1.171 -1.172 -1.171 -3.071 0 -4.243 c 2.519 -2.518 5.867 -3.905 9.428 -3.905 c 7.352 0 13.333 5.981 13.333 13.333 S 57.667 28.604 50.315 28.604 z" style="stroke: none; stroke-width: 1; stroke-dasharray: none; stroke-linecap: butt; stroke-linejoin: miter; stroke-miterlimit: 10; fill: rgb(255,255,255); fill-rule: nonzero; opacity: 1;" transform=" matrix(1 0 0 1 0 0) " stroke-linecap="round" />
	<path d="M 50.315 88.063 c -3.561 0 -6.909 -1.387 -9.428 -3.906 c -1.172 -1.171 -1.172 -3.071 0 -4.242 c 1.171 -1.172 3.071 -1.172 4.242 0 c 1.386 1.386 3.228 2.148 5.186 2.148 c 4.043 0 7.333 -3.29 7.333 -7.334 c 0 -4.043 -3.29 -7.333 -7.333 -7.333 H 3 c -1.657 0 -3 -1.343 -3 -3 s 1.343 -3 3 -3 h 47.315 c 7.352 0 13.333 5.981 13.333 13.333 C 63.648 82.082 57.667 88.063 50.315 88.063 z" style="stroke: none; stroke-width: 1; stroke-dasharray: none; stroke-linecap: butt; stroke-linejoin: miter; stroke-miterlimit: 10; fill: rgb(255,255,255); fill-rule: nonzero; opacity: 1;" transform=" matrix(1 0 0 1 0 0) " stroke-linecap="round" />
</g>
</svg>